<?xml version="1.0" encoding="UTF-8"?>
<svg width="690px" height="388px" viewBox="0 0 690 388" version="1.1" xmlns="http://www.w3.org/2000/svg" xmlns:xlink="http://www.w3.org/1999/xlink">
    <!-- Generator: Sketch 60.1 (88133) - https://sketch.com -->
    <title>contentImage</title>
    <desc>Created with Sketch.</desc>
    <g id="content" stroke="none" stroke-width="1" fill="none" fill-rule="evenodd">
        <g id="contentImage">
            <rect id="invisible" fill-opacity="0.01" fill="#FFFFFF" x="0" y="0" width="690" height="388"></rect>
            <g id="mumma" transform="translate(258.000000, 23.000000)" fill-rule="nonzero">
                <path d="M29.7932414,69.5515188 C23.5977686,67.7003396 17.4022958,65.8501698 11.2078276,64 C2.51085867,97.0254805 -14.7122945,225.612786 44.3601873,223.984677 C55.2432029,219.442525 64.1169845,222.470626 75,217.928475 C66.3612988,176.294103 31.7211014,112.429431 29.7932414,69.5515188" id="Fill-162" fill="#2A2A2A"></path>
                <path d="M139.846611,70.0537577 C145.995763,68.2036341 152.643468,65.8501236 158.791623,64 C167.05464,108.583539 165.810252,141.581108 152.723237,183.962456 C147.579168,200.618612 130.588483,212.868367 122.895811,220.868083 C112.094163,216.328522 97.8026451,227.425228 87,222.885666 C95.5751106,181.275035 137.933165,112.907219 139.846611,70.0537577" id="Fill-163" fill="#2A2A2A"></path>
                <path d="M118.336583,124 C120.291829,134.929358 122.324283,147.282355 119.37537,159.838009 C116.831544,170.665534 115.131983,189.784852 114.969548,201.499631 C149.223465,211.781697 173.869601,240.426898 173.869601,274.15667 C173.869601,277.459675 174.074149,315.370632 173.970872,319.009382 C173.667057,329.647358 170.714133,340 152.233542,340 L21.7143058,340 C3.28685744,340 0.334936219,329.628201 0.0301182671,318.998292 C-0.0751642491,315.359541 0.12938464,277.451609 0.12938464,274.15667 C0.12938464,240.501508 24.6672297,211.910752 58.8028296,201.570208 C58.5942699,189.86047 57.5324205,170.35802 54.623615,159.838009 C51.1733565,147.365031 53.7061531,134.929358 55.6613998,124 L118.336583,124" id="Fill-164" fill="#F5A479"></path>
                <path d="M125.502485,205 C123.570736,205 122.00497,206.551728 122.00497,208.466158 C122.00497,210.379589 123.570736,211.932316 125.502485,211.932316 C127.434234,211.932316 129,210.379589 129,208.466158 C129,206.551728 127.434234,205 125.502485,205 Z M67.747613,248.067684 C69.6793625,248.067684 71.2461363,249.620411 71.2461363,251.533842 C71.2461363,253.448272 69.6793625,255 67.747613,255 C65.8168718,255 64.2511062,253.448272 64.2511062,251.533842 C64.2511062,249.620411 65.8168718,248.067684 67.747613,248.067684 Z M60.5711033,237.851062 C62.5018445,237.851062 64.0676101,239.40279 64.0676101,241.31722 C64.0676101,243.23165 62.5018445,244.783378 60.5711033,244.783378 C58.6393539,244.783378 57.0735883,243.23165 57.0735883,241.31722 C57.0735883,239.40279 58.6393539,237.851062 60.5711033,237.851062 Z M54.514726,226.348494 C56.4454672,226.348494 58.012241,227.900222 58.012241,229.814652 C58.012241,231.729082 56.4454672,233.28081 54.514726,233.28081 C52.5829765,233.28081 51.0172109,231.729082 51.0172109,229.814652 C51.0172109,227.900222 52.5829765,226.348494 54.514726,226.348494 Z M50.1501418,215.517376 C52.0818912,215.517376 53.6476568,217.069103 53.6476568,218.983534 C53.6476568,220.897964 52.0818912,222.449691 50.1501418,222.449691 C48.2183923,222.449691 46.6526267,220.897964 46.6526267,218.983534 C46.6526267,217.069103 48.2183923,215.517376 50.1501418,215.517376 Z M47.4975151,205 C49.4282563,205 50.9950301,206.551728 50.9950301,208.466158 C50.9950301,210.379589 49.4282563,211.932316 47.4975151,211.932316 C45.5657656,211.932316 44,210.379589 44,208.466158 C44,206.551728 45.5657656,205 47.4975151,205 Z M105.252387,248.067684 C103.320638,248.067684 101.754872,249.620411 101.754872,251.533842 C101.754872,253.448272 103.320638,255 105.252387,255 C107.184136,255 108.749902,253.448272 108.749902,251.533842 C108.749902,249.620411 107.184136,248.067684 105.252387,248.067684 Z M112.429905,237.851062 C110.498155,237.851062 108.93239,239.40279 108.93239,241.31722 C108.93239,243.23165 110.498155,244.783378 112.429905,244.783378 C114.361654,244.783378 115.926412,243.23165 115.926412,241.31722 C115.926412,239.40279 114.361654,237.851062 112.429905,237.851062 Z M118.485274,226.348494 C116.554533,226.348494 114.987759,227.900222 114.987759,229.814652 C114.987759,231.729082 116.554533,233.28081 118.485274,233.28081 C120.417023,233.28081 121.982789,231.729082 121.982789,229.814652 C121.982789,227.900222 120.417023,226.348494 118.485274,226.348494 Z M122.849858,215.517376 C120.918109,215.517376 119.352343,217.069103 119.352343,218.983534 C119.352343,220.897964 120.918109,222.449691 122.849858,222.449691 C124.781608,222.449691 126.347373,220.897964 126.347373,218.983534 C126.347373,217.069103 124.781608,215.517376 122.849858,215.517376 L122.849858,215.517376 Z" id="Fill-165" fill="#5F5F5F"></path>
                <path d="M152.941882,224 C166.093098,237.59594 172.402838,256.11084 173.895906,275.437074 C174.161274,278.873007 173.847839,317.10146 173.743695,320.780997 C173.441276,331.534214 170.492191,342 152.035627,342 L21.6860755,342 C3.28258427,342 0.334500775,331.514848 0.030079111,320.769785 C-0.0750665297,317.090248 0.129216429,278.768023 0.129216429,275.437074 C0.129216429,256.838594 7.45235996,239.770027 19.6612709,226.409536 C28.1380123,254.68795 54.2571908,275.315781 85.8599649,275.315781 C117.461737,275.315781 145.022913,253.136633 152.941882,224" id="Fill-166" fill="#2A2A2A"></path>
                <path d="M35,253.792889 C47.6831,266.819516 65.4916247,274.923625 85.2145987,274.923625 C106.31096,274.923625 125.214756,265.650328 138,251 C134.206498,275.547809 109.955796,311.215758 86.2512128,317 C64.9131435,312.244068 39.9170905,278.365377 35,253.792889" id="Fill-167" fill="#3F3F3F"></path>
                <path d="M30.1959105,139 C20.5942526,136.692183 11.5750053,122.82127 9.30624199,106.052331 C7.74976489,94.5532585 12.2629398,91.4201488 19.7409297,91 C20.7383333,108.53521 24.4377568,124.869996 30.1959105,139 Z M142.804089,139 C152.405747,136.692183 161.424995,122.82127 163.693758,106.052331 C165.250235,94.5532585 160.73706,91.4201488 153.25907,91 C152.261667,108.53521 148.562243,124.869996 142.804089,139 L142.804089,139 Z" id="Fill-168" fill="#F49A6A"></path>
                <path d="M174,274.465053 C174,268.599472 173.375762,262.81919 171.998031,257.218539 C169.141368,245.603785 163.099389,234.813926 155.084499,226 C150.831067,238.86213 148.130713,253.996232 148.130713,269.108257 C148.130713,271.233715 148.089632,307.392588 148.057568,340 L152.126635,340 C170.594248,340 173.545098,329.695845 173.847698,319.108697 C173.951905,315.485986 174,277.752588 174,274.465053 Z M19.1179396,226.802817 C7.2373859,239.866655 0.129293778,256.434789 0.129293778,274.465053 C0.129293778,277.74456 -0.0751114645,315.474947 0.0300971164,319.097658 C0.334701007,329.676778 3.28454922,340 21.6990568,340 L25.8192252,340 C25.7881636,307.392588 25.7470822,271.233715 25.7470822,269.108257 C25.7470822,253.996232 23.3703702,239.664947 19.1179396,226.802817 L19.1179396,226.802817 Z" id="Fill-169" fill="#4D4D4D"></path>
                <path d="M140.543234,40.9071598 C142.237913,50.4017361 156,63.8470554 156,74.1996059 C156,134.840615 124.883832,184 86.5,184 C57.3628064,184 32.4134163,155.67162 22.0840381,115.498119 C18.8055745,102.749333 17,88.8075056 17,74.1996059 C17,58.0737518 23.3593322,42.760181 27.3112317,28.9665953 C47.5556435,29.4773184 136.681059,19.2679328 140.543234,40.9071598" id="Fill-170" fill="#FBBB91"></path>
                <path d="M16.0257796,89.6415678 C16.0850748,89.5308807 20.3181492,89.3296315 23.1100486,85.8520451 C29.3269997,78.1079753 23.511045,74.3637336 34.4927172,61.1225415 C45.7537804,47.5452632 73.1682633,48.8644518 86.8001296,37.0662166 C94.9587472,46.4987673 108.158462,44.4792314 119.40847,47.8521683 C131.847397,51.5813162 141.600955,63.9168869 144.700385,68.0042584 C151.749479,77.2949284 148.291263,83.0778246 156.101144,91 C160.75632,78.2267123 161.823634,77.6098835 160.433714,63.896762 C156.641836,26.4784954 130.817268,-7.31929779 85.5016652,1.38070578 C47.2562605,-5.78376628 29.0767539,17.4615243 17.8619208,50.2339527 C16.4951162,54.2297559 13.6770867,60.1817014 12.9524792,64.3817726 C10.2630901,79.9644993 13.9062274,69.9845507 16.0257796,89.6415678" id="Fill-171" fill="#2A2A2A"></path>
                <path d="M110,41 C106.907461,22.12 100.0053,6.66731707 85.059179,6 C84.8705252,13.3336585 85.1135034,23.4731707 86.0696126,30.8068293 C86.9862132,37.8331707 103.730965,39.1756098 110,41" id="Fill-172" fill="#3B3B3B"></path>
                <path d="M54.4480212,44.9700532 C56.8854267,45.23338 66.5055295,43.7562812 73.6331558,40.689964 C79.6257058,38.1122414 84.3760968,35.301022 84.4117911,32.9053653 C84.5066357,26.3602541 85.5652244,16.011305 84.5902622,9.62151552 C83.5255545,2.64644106 81.4818053,1.35757978 80.5751721,10.3796087 C79.6104082,19.9941229 75.7166785,29.3946841 64.0426282,36.5333092 C58.1122881,40.1591959 52.3257447,44.2273893 54.4480212,44.9700532" id="Fill-173" fill="#1F1F1F"></path>
                <path d="M27.3110323,215 C30.0933957,210.38586 42.8528414,206.319247 40.7717082,196.26457 C35.7150055,171.833226 10.3020341,134.064086 7.08324082,120 C5.28848404,129.756398 5.69549172,155.171452 8.51708476,174.568817 C10.1539421,185.825806 12.9314018,193.024355 15.7157267,199.254516 C19.2081468,207.066989 23.9098211,213.956022 27.3110323,215" id="Fill-174" fill="#3B3B3B"></path>
                <path d="M29,66.6123274 C22.193536,78.6565214 23.8534798,111.521968 24.6601351,126 C18.8875392,117.576584 15.4217989,78.2307269 17.7147637,67.6966301 C22.4088425,77.1586188 24.3059211,57.1503387 29,66.6123274" id="Fill-175" fill="#2A2A2A"></path>
                <path d="M86.4441611,245 C91.990984,245 96.8072341,248.276125 98.8947367,253.029997 C100.539855,256.777463 100.492,262.700585 97.7717603,265.386016 C96.6179445,266.525934 92.4408126,265.793635 91.7304449,266.789925 C91.1827812,267.556614 91.8952757,271.598416 91.1923521,272.209339 C88.3838476,274.654042 84.1354662,274.625721 81.309947,271.938267 C80.4421925,271.112914 81.6066424,267.888373 81.0206955,266.850613 C80.5931988,266.096062 76.2331578,266.789925 75.2462997,265.661134 C72.6738755,262.718791 72.4760786,257.011111 73.8181204,253.464925 C75.7205871,248.436948 80.7218731,245 86.4441611,245 Z M78.6407511,256.530667 C81.0472811,255.753864 83.5856757,256.773417 84.3119947,258.807467 C85.0372503,260.840506 83.6760668,263.11933 81.2706003,263.896133 C78.8651337,264.672935 76.3256757,263.654393 75.5993567,261.620343 C74.8741011,259.586293 76.236348,257.307469 78.6407511,256.530667 Z M94.3592306,256.530667 C91.9527007,255.753864 89.4143061,256.773417 88.6879871,258.807467 C87.961668,260.840506 89.323915,263.11933 91.7293815,263.896133 C94.134848,264.672935 96.674306,263.654393 97.3995616,261.620343 C98.1258807,259.586293 96.7636337,257.307469 94.3592306,256.530667 L94.3592306,256.530667 Z" id="Fill-176" fill="#333333"></path>
                <path d="M58.7496185,95 C71.1596786,95 79.770351,102.120743 81.2897041,107.532985 C74.3782553,106.015646 63.7518274,101.410859 55.3602151,102.833614 C51.2071156,103.538519 45.2000437,106.013655 49.6897723,110.217203 C50.1007613,110.601516 50.5589789,110.946004 51.0543764,111.255644 C41.5091813,113.145349 33,108.602292 33,99.201557 C36.0427257,100.866249 40.9514822,97.7011432 45.2332041,96.7323955 C49.4144398,95.7855518 52.100439,95 58.7496185,95 Z M113.250381,95 C100.840321,95 92.2306542,102.120743 90.7102963,107.532985 C97.6217451,106.015646 108.249178,101.410859 116.64079,102.833614 C120.793889,103.538519 126.799956,106.013655 122.311233,110.217203 C121.785689,110.709044 121.182771,111.136169 120.523581,111.504552 C130.276783,113.732771 139,108.236895 139,99.201557 C135.958279,100.866249 131.049523,97.7011432 126.767801,96.7323955 C122.586565,95.7855518 119.900566,95 113.250381,95 L113.250381,95 Z" id="Fill-177" fill="#4D4D4D"></path>
            </g>
        </g>
    </g>
</svg>