<?xml version="1.0" encoding="UTF-8"?>
<svg width="690px" height="388px" viewBox="0 0 690 388" version="1.1" xmlns="http://www.w3.org/2000/svg" xmlns:xlink="http://www.w3.org/1999/xlink">
    <!-- Generator: Sketch 60.1 (88133) - https://sketch.com -->
    <title>contentImage</title>
    <desc>Created with Sketch.</desc>
    <g id="content" stroke="none" stroke-width="1" fill="none" fill-rule="evenodd">
        <g id="contentImage">
            <rect id="invisible" fill-opacity="0.01" fill="#FFFFFF" x="0" y="0" width="690" height="388"></rect>
            <g id="other-characters" transform="translate(13.000000, 21.000000)"></g>
            <g id="hipster" transform="translate(87.000000, 104.000000)" fill-rule="nonzero">
                <path d="M91.9305789,145.361563 C91.9305789,123.070545 71.3668475,105 45.9998934,105 C20.6329392,105 0.0686775996,123.070545 0.0686775996,145.361563 C0.0686775996,147.094943 -0.0394744373,167.037306 0.0156618953,168.952086 C0.177359794,174.544201 1.73814213,180 11.4813683,180 L80.4913804,180 C90.2627049,180 91.8240174,174.553748 91.9846549,168.95739 C92.0392611,167.04314 91.9305789,147.099187 91.9305789,145.361563" id="Fill-254" fill="#D4461A"></path>
                <path d="M87,126.405764 C84.7796471,122.739038 81.9345882,119.410714 78.5902941,116.527935 L78.5902941,180 L80.943,180 C83.4751765,180 85.4535882,179.632426 87,178.99169 L87,126.405764 Z M68.8522941,110.112624 C66.201,108.807284 63.3861176,107.727369 60.4425882,106.901521 L60.4425882,180 L68.8522941,180 L68.8522941,110.112624 Z M50.7051177,105.170792 C49.3201765,105.059936 47.9182942,105 46.5000001,105 C45.0822353,105 43.680353,105.059936 42.2954118,105.170792 L42.2954118,180 L50.7051177,180 L50.7051177,105.170792 Z M32.5574118,106.901521 C29.6138824,107.726839 26.7995294,108.807284 24.1477059,110.112624 L24.1477059,180 L32.5574118,180 L32.5574118,106.901521 Z M14.4097059,116.527405 C11.0654118,119.410184 8.22141177,122.739038 6,126.405233 L6,178.994342 C7.54111765,179.633487 9.51158824,180 12.03,180 L14.4097059,180 L14.4097059,116.527405 L14.4097059,116.527405 Z" id="Fill-255" fill="#BA2C00"></path>
                <path d="M91.9304984,145.794057 C91.9304984,145.320716 91.9177747,144.850028 91.8997494,144.380401 L0.0999870939,144.380401 C0.0819617762,144.850028 0.0687078661,145.320716 0.0687078661,145.794057 C0.0687078661,146.403775 0.0554539559,149.269293 0.0406095767,152.809799 L91.9591269,152.809799 C91.9442825,149.269824 91.9304984,146.405367 91.9304984,145.794057 Z M90.1475824,134.620129 C89.1784565,131.65591 87.8329196,128.832314 86.1602761,126.190201 L5.83893015,126.190201 C4.16681687,128.832314 2.82127992,131.65591 1.85162386,134.620129 L90.1475824,134.620129 Z M77.5250886,116.429929 C73.1412253,112.791782 67.9441021,109.904508 62.1982669,108 L29.8014695,108 C24.0556344,109.904508 18.857981,112.791782 14.4746478,116.429929 L77.5250886,116.429929 Z M0.00561925396,162.570071 C-0.00286324851,165.984813 -0.00339340491,168.741547 0.0156922256,169.39531 C0.0315969178,169.93286 0.0602253636,170.469349 0.107409284,171 L91.8939176,171 C91.9411016,170.471471 91.9691998,169.936575 91.9845744,169.400617 C92.0031299,168.746854 92.0031299,165.987997 91.9941172,162.570071 L0.00561925396,162.570071 L0.00561925396,162.570071 Z" id="Fill-256" fill="#BA2C00"></path>
                <path d="M86.8406471,125.705746 L86.8348235,125.696223 C86.7585882,125.573491 86.6818235,125.450759 86.604,125.328026 L78.5902941,125.328026 L78.5902941,133.732026 L87,133.732026 L87,125.966023 L86.8406471,125.705746 Z M78.5902941,151.865749 L87,151.865749 L87,143.462278 L78.5902941,143.462278 L78.5902941,151.865749 Z M78.5902941,170 L87,170 L87,161.596529 L78.5902941,161.596529 L78.5902941,170 Z M60.4425882,151.865749 L68.8522941,151.865749 L68.8522941,143.462278 L60.4425882,143.462278 L60.4425882,151.865749 Z M42.2954118,151.865749 L50.7051177,151.865749 L50.7051177,143.462278 L42.2954118,143.462278 L42.2954118,151.865749 Z M24.1477059,151.865749 L32.5574118,151.865749 L32.5574118,143.462278 L24.1477059,143.462278 L24.1477059,151.865749 Z M6,151.865749 L14.4097059,151.865749 L14.4097059,143.462278 L6,143.462278 L6,151.865749 Z M60.4425882,133.732026 L68.8522941,133.732026 L68.8522941,125.328026 L60.4425882,125.328026 L60.4425882,133.732026 Z M42.2954118,133.732026 L50.7051177,133.732026 L50.7051177,125.328026 L42.2954118,125.328026 L42.2954118,133.732026 Z M24.1477059,133.732026 L32.5574118,133.732026 L32.5574118,125.328026 L24.1477059,125.328026 L24.1477059,133.732026 Z M14.4097059,125.328026 L6.39547059,125.328026 C6.26152941,125.539634 6.12970588,125.751771 6,125.965494 L6,133.732026 L14.4097059,133.732026 L14.4097059,125.328026 Z M61.4389411,115.597775 L68.8522941,115.597775 L68.8522941,109.71508 L68.6034706,109.593406 L68.4785294,109.533627 L68.3535882,109.473848 L68.2281176,109.414068 L68.102647,109.354818 L67.976647,109.296097 L67.9718823,109.293981 L67.850647,109.237376 L67.7241176,109.179184 L67.5975882,109.121521 L67.4710588,109.063858 L67.4557059,109.05698 L67.344,109.006724 L67.2164117,108.950119 L67.1269412,108.909913 L67.0893529,108.892985 L66.9617647,108.836908 L66.9273529,108.822096 L66.833647,108.781361 L66.7055294,108.725814 L66.6165882,108.687196 L66.5774117,108.670796 L66.4487647,108.615778 L66.3598235,108.578218 L66.3195882,108.561289 L66.1342941,108.483524 L66.102,108.470298 L66.0617647,108.45337 L65.9320588,108.399939 L65.843647,108.363965 L65.8023529,108.347037 L65.618647,108.272445 L65.5842353,108.25869 L65.5424117,108.241762 L65.411647,108.189389 L65.3242941,108.154474 L65.2814117,108.138074 L65.150647,108.08623 L65.0632941,108.052373 L65.0193529,108.035444 L64.9282941,108 L64.9224706,108.134371 C64.8075882,110.692179 63.5237647,113.330398 61.4389411,115.597775 Z M28.0616471,108.004232 L27.9388236,108.051844 L27.9367059,108.052373 L27.849353,108.08623 C27.6312353,108.171931 27.4141765,108.25869 27.1976471,108.346508 L27.156353,108.363965 L27.1314706,108.374017 L26.9387647,108.45337 L26.898,108.470298 L26.8736471,108.480349 L26.6804118,108.561289 L26.6401765,108.578218 L26.5517647,108.615778 L26.4231177,108.670267 L26.3834118,108.687196 L26.2944706,108.725285 L26.166353,108.780832 L26.1277059,108.797761 L26.0387647,108.836908 L25.9111765,108.892985 L25.8730588,108.909913 L25.7835883,108.94959 L25.656,109.006724 L25.5294706,109.063858 L25.4024118,109.120992 L25.2859412,109.174423 L25.2758824,109.179184 L25.1498824,109.237376 L25.023353,109.296097 L24.8978824,109.354818 L24.7724118,109.413539 L24.7718824,109.414068 L24.6469412,109.473319 L24.5347059,109.527279 L24.5008236,109.543149 C24.3832941,109.600283 24.2647059,109.657417 24.1477059,109.71508 L24.1477059,115.597775 L32.1328236,115.597775 C29.7229412,113.288077 28.1781177,110.614942 28.0658824,108.098398 L28.0616471,108.004232 Z M6,170 L14.4097059,170 L14.4097059,161.596529 L6,161.596529 L6,170 Z M24.1477059,170 L32.5574118,170 L32.5574118,161.596529 L24.1477059,161.596529 L24.1477059,170 Z M42.2954118,170 L50.7051177,170 L50.7051177,161.596529 L42.2954118,161.596529 L42.2954118,170 Z M60.4425882,170 L68.8522941,170 L68.8522941,161.596529 L60.4425882,161.596529 L60.4425882,170 Z" id="Fill-257" fill="#992F15"></path>
                <path d="M11.1233948,120.818313 C17.6596936,142.723094 19.9721309,156.63713 20.8916038,180 L27.7088233,180 C27.9564144,162.378551 22.8263059,129.989117 16.9798762,117.2311 C16.0212543,115.089957 14.8647712,116.182217 13.4458838,117.209673 C12.1698374,118.134175 10.5356304,118.782214 11.1233948,120.818313 Z M80.8620797,120.818313 C74.3252518,142.723094 72.0133436,156.63713 71.0933417,180 L64.2766512,180 C64.0290601,162.378551 69.1586395,129.989117 75.0050692,117.2311 C75.9642202,115.089957 77.3518941,116.182217 78.7707815,117.209673 C80.0468279,118.134175 81.449844,118.782214 80.8620797,120.818313 L80.8620797,120.818313 Z" id="Fill-258" fill="#3D3D3D"></path>
                <path d="M23.6159122,43.8522117 C24.1693909,46.4137024 24.4779303,49.2563195 24.4779303,52.250394 C24.4779303,63.5092617 20.1179057,72.6355026 14.7387024,72.6355026 C9.36055022,72.6355026 5,63.5092617 5,52.250394 C5,39.0486193 13.8141353,43.8522117 23.6159122,43.8522117 Z M46.7169468,99.9456708 C57.3854723,99.9456708 66.0335115,104.883183 66.0335115,110.973367 C66.0335115,117.063019 57.3854723,122 46.7169468,122 C36.0489469,122 27.4003821,117.063019 27.4003821,110.973367 C27.4003821,104.883183 36.0489469,99.9456708 46.7169468,99.9456708 Z M68.3840878,43.8522117 C67.830609,46.4137024 67.5220696,49.2563195 67.5220696,52.250394 C67.5220696,63.5092617 71.8820943,72.6355026 77.2612976,72.6355026 C82.6394498,72.6355026 87,63.5092617 87,52.250394 C87,39.0486193 78.1858646,43.8522117 68.3840878,43.8522117 L68.3840878,43.8522117 Z" id="Fill-259" fill="#F49A6A"></path>
                <path d="M78.7486602,19 C80.8370187,26.1504867 82,34.0889217 82,42.4484381 C82,48.6425439 81.3841473,54.6055811 80.2328865,60.18754 C78.1439952,70.3177031 75.7983211,81.2426572 70.6642623,87.974168 C58.0605926,104.496345 32.5016421,103.683132 20.0945552,87.4462374 C15.0691762,80.8694739 12.588185,70.7503642 10.4646654,60.9017991 C9.21697774,55.1150895 10.8770096,49.0388866 10.8770096,42.580026 C10.8770096,34.2205096 9.70976641,26.1504867 11.7981249,19 L78.7486602,19" id="Fill-260" fill="#FAB385"></path>
                <path d="M44.7571542,52.9424647 C44.3736837,52.6614751 43.9067582,51.4825516 43.4387764,51.2929991 C42.6813429,50.9868386 41.1501019,51.0674883 40.2548093,51.0674883 C32.7544223,51.0674883 25.2535071,51.0674883 17.7531201,51.0674883 C15.807245,51.0674883 14.7202171,51.6402551 15.0624883,53.8121453 C15.7449179,58.1451388 16.4278756,62.4781323 17.1103052,66.8111257 C17.3960594,68.6249728 18.2665268,69.0313033 19.7708298,69.1417471 C25.8688557,69.5907141 31.9668816,69.5460229 38.0649075,69.9949898 C39.2295803,70.0807764 40.3271721,69.0575016 40.91347,67.49485 C42.0200412,64.5457433 43.1266124,62.089781 44.2326553,59.1406742 C44.9256488,57.2944646 44.8575115,56.6693012 46,56.5429329 C47.140904,56.4165647 47.0743513,57.2944646 47.7668166,59.1406742 C48.8733877,62.089781 49.9799589,64.5457433 51.0865301,67.49485 C51.672828,69.0575016 52.7704198,70.0807764 53.9350925,69.9949898 C60.0331184,69.5460229 66.1311443,69.5907141 72.2291702,69.1417471 C73.7334732,69.0313033 74.6039406,68.6249728 74.8896948,66.8111257 C75.5721244,62.4781323 76.2550821,58.1451388 76.9375117,53.8121453 C77.2797829,51.6402551 76.192755,51.0674883 74.2468799,51.0674883 C67.3069092,51.0674883 60.3669384,51.0700567 53.4269677,51.0674883 C53.1797718,51.0674883 51.7171965,51.0084137 50.4310385,51.0001946 C49.2579146,50.9924892 49.0276211,51.2149179 48.7888763,51.4337508 C48.3885036,51.8000133 48.0055613,52.8859586 47.1567499,53.1839 C46.6892962,53.3482815 45.1506605,53.230646 44.7571542,52.9424647" id="Fill-261" fill="#6E4229"></path>
                <path d="M25,111.105818 C25.2002275,109.669117 25.7226297,108.255589 26.2556822,106.760687 C26.5656089,105.892523 26.6572023,105.904917 26.9085518,106.12856 C27.1529785,106.345735 27.5582262,106.756375 27.8825309,107.134143 C32.3679472,112.359833 40.1741583,118.064603 47,121.134163 C53.8258417,118.064603 61.6320528,112.359833 66.1180016,107.134143 C66.4423063,106.756375 66.847554,106.345735 67.0919807,106.12856 C67.3433302,105.904917 67.4349236,105.892523 67.7443178,106.760687 C68.2779028,108.255589 68.800305,109.669117 69,111.105818 C64.7952218,121.856286 60.0499358,126.991441 55.5384261,131.852298 C53.9877278,133.523419 53.3359233,133.467913 52.7277855,131.033173 C51.6915015,126.886895 49.736088,124.404733 47,122.447457 C44.2644447,124.404733 42.3084986,126.886895 41.2727471,131.033173 C40.6640767,133.467913 40.0128047,133.523419 38.4615739,131.852298 C33.9505967,126.991441 29.2053107,121.856286 25,111.105818" id="Fill-262" fill="#D4461A"></path>
                <path d="M54.8562954,124.372306 C52.9654161,125.05427 50.9793951,126.156488 49.0635606,126.877545 C46.7957533,127.730543 46.7156885,127.542677 44.4515205,126.159746 C42.8642633,125.190554 41.3856654,124.731749 39.7989281,123.762557 C37.4209018,122.310669 37.0751677,122.922047 36.8266552,125.68248 C36.5823018,128.393503 36.4980778,130.538214 36.1320677,133.192768 C35.7047092,136.287124 36.245406,136.029216 38.7768031,134.845553 C40.6921177,133.950204 42.0287827,133.667319 43.9264207,132.733963 C46.9304076,131.257099 46.6787756,131.638803 49.6754839,133.44959 C51.1696788,134.353084 52.6649135,135.256034 54.1596283,136.159527 C55.9480871,137.24057 56.4851446,137.654852 56.5891248,135.055137 C56.7019433,132.217603 56.8839086,128.998366 56.9972469,126.160832 C57.0419584,125.032551 56.551172,123.760928 54.8562954,124.372306" id="Fill-263" fill="#2A2A2A"></path>
                <path d="M28.3178847,52.0835155 C32.340916,52.0835155 37.1703526,51.9208595 39.8271513,52.0495431 C41.5838873,52.1349889 41.7585026,52.3300732 42.3876469,52.8484107 C42.6834347,53.09188 42.6559196,53.7625786 42.6707354,54.1100242 C42.7665093,56.3486037 31.9091399,59 24.0186437,59 C16.1286766,59 16.0154412,56.1555783 16.0154412,53.9169989 C16.0154412,52.9961394 15.7736254,52.4258138 17.2038837,52.1874918 C19.250587,51.8467377 23.6842289,52.0835155 28.3178847,52.0835155 Z M55.5599922,52.043881 C57.6791873,52.043881 67.1031236,51.9594646 68.5016336,52.0258653 C69.4260366,52.0701324 69.520223,52.1746235 69.8504047,52.4469179 C70.005442,52.5740573 69.9922135,52.9302534 69.9998745,53.1114399 C70.0483021,54.2901812 56.0626726,55.9769655 51.9062988,55.9769655 C50.1045861,55.9769655 49.5982017,55.8014411 49.302943,55.3253119 C49.0124466,54.8548447 48.5886076,52.2847766 49.7056166,52.0989575 C50.7839985,51.9193153 53.1190815,52.043881 55.5599922,52.043881 L55.5599922,52.043881 Z" id="Fill-264" fill="#835B3E"></path>
                <path d="M8.28614062,29.2603978 C10.1792466,32.2126854 13.8444308,36.4685944 18.3583946,38.8020341 C31.6481887,45.6720972 62.2370182,33.5030154 74.0417125,25.6908572 C74.644737,27.0173397 74.7203133,37.1703808 80.9291935,51.9908328 C80.7484447,53.7405136 80.729947,58.0469299 79.5392246,63.2848081 C77.4923236,72.2857498 71.844716,88.8191986 64.5555709,94.4696421 C62.265029,96.2453743 50.8223609,97.4633989 49.586187,93.0963738 C48.9937326,91.0048378 43.2256258,91.0048378 42.6331713,93.0963738 C41.3969974,97.4633989 29.9543293,96.2453743 27.6637873,94.4696421 C20.3746423,88.8191986 14.7265062,72.2857498 12.6801337,63.2848081 C11.2388997,56.9453379 11.515308,51.9695665 11.1416547,51.2406657 C10.3388552,49.6733428 10.5005778,57.9235856 11.4894112,64.5831129 C12.9174325,74.199181 16.459475,87.9366491 21.149431,98.7462857 C22.9611472,102.921915 25.5064287,106.4351 27.331886,109.441085 C28.3392171,111.099321 32.8748495,112.194533 38.4764772,112.677808 C40.9852918,112.893661 43.6198907,113 46.1514311,113 C54.8057052,112.99627 63.4488808,111.809613 64.8874723,109.441085 C66.712401,106.4351 69.2582111,102.921915 71.0699272,98.7462857 C75.7598832,87.9366491 79.3019257,74.199181 80.729947,64.5831129 C81.6474322,58.4052662 82.4460037,50.0449706 82.7979882,43.8267181 C83.4644334,32.061695 82.4946262,22.9421939 79.6993617,17.533654 C77.7528767,1.82533592 44.4723698,-8.21446233 23.2745508,9.0324692 C21.044787,10.8470123 20.6024281,10.9490903 17.506444,10.7385544 C13.6044894,10.4732579 11.0333112,8.82246495 9.13703415,9.26320805 C7.8844766,9.55402406 6.97069094,10.4466751 6.34864021,11.9400977 C3.8815775,17.8654076 4.95814279,24.0687737 8.28614062,29.2603978" id="Fill-265" fill="#412319"></path>
                <path d="M8.44971724,23.0167142 C9.73037722,29.1028985 16.2421987,35.4414444 23.1601859,37.1052403 C32.411387,39.3296057 39.2661577,37.0788977 48.2497425,33.9441335 C52.1749574,32.5743206 62.0377776,26.9517653 68.7682227,22.1179062 C73.9161492,18.420465 77.5368715,19.0705993 72.7845747,14.6071165 C70.3064897,12.280015 63.5518117,11.3801533 54.5439939,12.442812 C46.0961687,13.4390875 37.0546355,18.7313071 28.7722265,20.7644256 C24.271215,21.8692325 18.381022,19.2560509 14.7381739,18.9215004 C8.54822955,18.3535549 7.13534182,16.7751089 8.44971724,23.0167142" id="Fill-266" fill="#522D21"></path>
                <path d="M39,110 C33.86625,105.058824 29.13375,100.941176 24,96 C24.9873214,100.752863 26.9496429,107.101725 31.8953571,108.579686 C34.3971429,109.326902 36.4976786,109.252235 39,110" id="Fill-267" fill="#522D21"></path>
                <path d="M42.879185,79.0384044 C42.0217588,79.1462244 41.2022,79.4067895 40.3274629,79.7143938 C35.3311294,81.4696406 33.2408487,82.1926691 28,80.8528465 C28.2401875,83.1387371 32.6214462,85.0779122 34.8107231,85.5049641 C38.897157,86.3019867 42.8597103,86.2348635 46.1790588,84.5742235 C49.6606961,86.3157285 54.4774298,86.0662625 58.9441606,84.770308 C61.0187534,84.1683127 63.3108132,82.8543881 64,80.7127862 C61.3822805,81.1794778 60.4323496,81.4199588 58.4318687,81.1086549 C56.1657751,80.7561256 54.0257258,80.4146955 52.0311956,79.7143938 C51.0255455,79.3608075 50.0923845,79.0690591 49.0921441,79.0003503 C48.7892048,78.9792091 47.503877,79.9221059 46.1108975,79.9295053 C44.6654445,79.9363762 43.1101762,79.0093353 42.879185,79.0384044" id="Fill-268" fill="#412319"></path>
            </g>
            <g id="chix" transform="translate(156.000000, 66.000000)" fill-rule="nonzero">
                <path d="M87.7327246,100 C89.182305,107.944024 92.1758744,116.922823 89.9896098,126.04819 C87.360294,137.019591 85.3635899,147.338028 85.2357295,156.33075 C110.631634,163.804289 128.903038,184.625106 128.903038,209.141654 C128.903038,211.542449 129.055429,239.098098 128.978119,241.743663 C128.753619,249.475163 126.564381,257 112.863245,257 L16.0989223,257 C2.4371847,257 0.248690005,249.461239 0.0219607653,241.735602 C-0.0553501885,239.090037 0.0962982208,211.536586 0.0962982208,209.141654 C0.0962982208,184.679337 18.2881604,163.898093 43.5956037,156.38205 C43.4320613,147.376868 42.1110848,137.04011 39.0097261,126.04819 C36.4517743,116.982916 39.8170309,107.944024 41.2666113,100 L87.7327246,100" id="Fill-149" fill="#F5A479"></path>
                <path d="M21,109 C14.2050634,107.317217 7.82228924,97.2030094 6.21672247,84.975658 C5.11522899,76.5909176 8.30912925,74.3063585 13.6011807,74 C14.3070269,86.7860909 16.9250486,98.6968718 21,109" id="Fill-150" fill="#F49A6A"></path>
                <path d="M108,109 C114.794937,107.317217 121.177711,97.2030094 122.783278,84.975658 C123.884771,76.5909176 120.690871,74.3063585 115.398819,74 C114.692973,86.7860909 112.074951,98.6968718 108,109" id="Fill-151" fill="#F49A6A"></path>
                <path d="M124.903489,208.631319 C124.903489,190.463716 118.823633,174.306258 103.64286,164 C101.563708,189.026098 84.5679307,208.543181 63.9058902,208.543181 C43.4576842,208.543181 26.5995309,189.429757 24.2355123,164.778432 C9.69698294,175.110613 4.09584966,190.914777 4.09584966,208.631319 C4.09584966,211.05179 3.94490763,238.899055 4.02185847,241.572831 C4.24753161,249.38085 2.72627269,257 16.324374,257 L112.637969,257 C126.275286,257 124.754767,249.394922 124.97822,241.580979 C125.055171,238.907203 124.903489,211.057716 124.903489,208.631319" id="Fill-152" fill="#2A2A2A"></path>
                <path d="M116.560242,175.159828 C115.029116,173.353778 113.377365,171.630891 111.613869,170 L103.358813,170 C103.033939,171.757477 102.634322,173.478891 102.162922,175.159828 L116.560242,175.159828 Z M92.6113301,193.94746 C91.0876045,195.824898 89.4417735,197.550729 87.690118,199.106552 L123,199.106552 L123,193.94746 L92.6113301,193.94746 Z M41.1206507,199.106552 C39.3697353,197.550729 37.7246443,195.824898 36.2009187,193.94746 L7,193.94746 L7,199.106552 L41.1206507,199.106552 Z M26.6471069,175.159828 C26.1757065,173.479627 25.7760893,171.757477 25.4512153,170 L18.3853908,170 C16.6226348,171.630891 14.9708836,173.353778 13.4397576,175.159828 L26.6471069,175.159828 Z M7,247 L123,247 L123,241.840908 L7,241.840908 L7,247 Z M7,223.053276 L123,223.053276 L123,217.894184 L7,217.894184 L7,223.053276 Z" id="Fill-153" fill="#B04878"></path>
                <path d="M128.903038,208.947562 C128.903038,195.727163 123.629539,183.579583 114.816833,174.000736 C111.661208,183.430949 109.898667,193.939131 109.898667,205.019778 C109.898667,206.578236 109.868189,233.091144 109.844401,257 L112.863245,257 C126.564381,257 128.753619,249.444645 128.978119,241.681791 C129.055429,239.025496 128.903038,211.358094 128.903038,208.947562 Z M14.1832461,174 C5.36979732,183.578848 0.0962982208,195.727163 0.0962982208,208.947562 C0.0962982208,211.352207 -0.0553501885,239.017402 0.0219607653,241.673697 C0.248690005,249.430665 2.4371847,257 16.0989223,257 L19.1556785,257 C19.1326339,233.091144 19.1021555,206.578236 19.1021555,205.019778 C19.1021555,193.939131 17.3388711,183.430949 14.1832461,174 L14.1832461,174 Z" id="Fill-154" fill="#FFBE8E"></path>
                <path d="M104.658282,42.0981924 C105.901869,48.9923434 116,58.7551866 116,66.2723253 C116,110.30465 93.1671272,146 65.0003699,146 C43.6182249,146 25.3106464,125.430348 17.7300202,96.2597808 C15.3249636,87.0027003 14,76.8800725 14,66.2723253 C14,54.5631064 18.6665941,43.4436983 21.5665702,33.4279737 C36.4215496,33.7988172 101.824148,26.3856327 104.658282,42.0981924" id="Fill-155" fill="#FBBB91"></path>
                <path d="M34.6197535,157 C34.7756689,156.751496 28.9486117,126.963472 48.0687595,106.14076 C56.0472995,97.4512347 67.9595321,91.0196288 75.5993851,83.4022832 C85.7965486,73.2342697 90.8634251,62.8192272 95.9683479,50.8637553 C99.5387352,70.2972041 105.513502,82.8197369 111.601661,98.3110435 C118.11206,76.1152929 127.751211,25.3106209 93.4043234,19.9843782 C84.3373598,1.99180962 53.6511265,9.05684238 46.9228935,11.0102159 C36.5123721,14.0320826 28.2011132,22.028452 22.4188164,31.3086354 C13.0444982,43.5929878 9.80981377,66.9464569 11.3786655,90.4009499 C13.8688354,127.612384 19.8846322,128.200829 34.6197535,157" id="Fill-156" fill="#2A2A2A"></path>
                <path d="M97,38 C91.4786679,48.6814378 86.5979486,58.3268808 80.6581221,66.993106 C70.1383921,82.3420504 55.266761,87.1430198 42.7325208,102.222089 C37.3722613,108.670327 30.4277538,124.18739 31.408899,141 C26.8231117,123.056276 34.5214976,107.8784 38.9550382,100.654456 C49.0194992,84.255507 62.999715,76.778648 74.762425,62.8948435 C81.7282617,54.6739854 88.1821966,46.495157 97,38" id="Fill-157" fill="#DA5994"></path>
                <path d="M51.4127058,15 C49.773314,10.2349177 42.1040783,9.99293234 37,7.66581595 C46.1302209,6.03495076 59.1943826,7.36731908 69,12.0251744 C61.3824873,13.7705117 59.0302186,13.2539382 51.4127058,15" id="Fill-158" fill="#2A2A2A"></path>
                <path d="M59.7366116,12.9756367 C59.58845,7.99170304 49.0857586,3.62284783 45,0 C53.9867713,0.969018273 69.2043609,7.8650904 77,15 C69.3897455,14.5582946 67.3461363,13.4180615 59.7366116,12.9756367" id="Fill-159" fill="#2A2A2A"></path>
                <path d="M55.6616324,18.765896 C53.5363977,20.59312 51.5048476,22.9828424 49.3663348,24.870974 C46.836118,27.1052032 46.633258,26.918898 42.9463706,26.4244727 C40.3630414,26.0783749 37.8328245,25.4693003 35.2494953,25.1232025 C31.3774521,24.6044142 31.5943278,26.3599824 32.7008366,29.8582208 C33.788166,33.2926854 34.8172192,36.7171182 35.714229,40.1480001 C36.7602487,44.1463962 37.3356332,43.5473533 40.0406785,40.7706894 C42.0869821,38.6704565 43.6663391,36.8568471 45.671333,34.7193533 C48.8425873,31.3357643 48.7105439,31.9340906 53.5799204,32.564662 C56.0083385,32.8792312 58.4382318,33.1930838 60.8666499,33.5076529 C63.7730797,33.8845627 64.6922197,34.1074124 63.4787484,30.8814662 C62.1546261,27.3617311 60.722066,23.3396886 59.3972061,19.8199535 C58.8705079,18.4197983 57.5663029,17.1278434 55.6616324,18.765896" id="Fill-160" fill="#DA5994"></path>
                <path d="M104,62.1464531 C99.5258745,64.8604471 103.202435,78.6677346 103.75723,88 C97.9147631,79.9164232 94.3508356,56.5173737 96.764839,46 C100.365296,52.8836825 100.399543,55.2620313 104,62.1464531" id="Fill-161" fill="#2A2A2A"></path>
            </g>
            <g id="mumma" transform="translate(254.000000, 23.000000)" fill-rule="nonzero">
                <path d="M29.7932414,69.5515188 C23.5977686,67.7003396 17.4022958,65.8501698 11.2078276,64 C2.51085867,97.0254805 -14.7122945,225.612786 44.3601873,223.984677 C55.2432029,219.442525 64.1169845,222.470626 75,217.928475 C66.3612988,176.294103 31.7211014,112.429431 29.7932414,69.5515188" id="Fill-162" fill="#2A2A2A"></path>
                <path d="M139.846611,70.0537577 C145.995763,68.2036341 152.643468,65.8501236 158.791623,64 C167.05464,108.583539 165.810252,141.581108 152.723237,183.962456 C147.579168,200.618612 130.588483,212.868367 122.895811,220.868083 C112.094163,216.328522 97.8026451,227.425228 87,222.885666 C95.5751106,181.275035 137.933165,112.907219 139.846611,70.0537577" id="Fill-163" fill="#2A2A2A"></path>
                <path d="M118.336583,124 C120.291829,134.929358 122.324283,147.282355 119.37537,159.838009 C116.831544,170.665534 115.131983,189.784852 114.969548,201.499631 C149.223465,211.781697 173.869601,240.426898 173.869601,274.15667 C173.869601,277.459675 174.074149,315.370632 173.970872,319.009382 C173.667057,329.647358 170.714133,340 152.233542,340 L21.7143058,340 C3.28685744,340 0.334936219,329.628201 0.0301182671,318.998292 C-0.0751642491,315.359541 0.12938464,277.451609 0.12938464,274.15667 C0.12938464,240.501508 24.6672297,211.910752 58.8028296,201.570208 C58.5942699,189.86047 57.5324205,170.35802 54.623615,159.838009 C51.1733565,147.365031 53.7061531,134.929358 55.6613998,124 L118.336583,124" id="Fill-164" fill="#F5A479"></path>
                <path d="M125.502485,205 C123.570736,205 122.00497,206.551728 122.00497,208.466158 C122.00497,210.379589 123.570736,211.932316 125.502485,211.932316 C127.434234,211.932316 129,210.379589 129,208.466158 C129,206.551728 127.434234,205 125.502485,205 Z M67.747613,248.067684 C69.6793625,248.067684 71.2461363,249.620411 71.2461363,251.533842 C71.2461363,253.448272 69.6793625,255 67.747613,255 C65.8168718,255 64.2511062,253.448272 64.2511062,251.533842 C64.2511062,249.620411 65.8168718,248.067684 67.747613,248.067684 Z M60.5711033,237.851062 C62.5018445,237.851062 64.0676101,239.40279 64.0676101,241.31722 C64.0676101,243.23165 62.5018445,244.783378 60.5711033,244.783378 C58.6393539,244.783378 57.0735883,243.23165 57.0735883,241.31722 C57.0735883,239.40279 58.6393539,237.851062 60.5711033,237.851062 Z M54.514726,226.348494 C56.4454672,226.348494 58.012241,227.900222 58.012241,229.814652 C58.012241,231.729082 56.4454672,233.28081 54.514726,233.28081 C52.5829765,233.28081 51.0172109,231.729082 51.0172109,229.814652 C51.0172109,227.900222 52.5829765,226.348494 54.514726,226.348494 Z M50.1501418,215.517376 C52.0818912,215.517376 53.6476568,217.069103 53.6476568,218.983534 C53.6476568,220.897964 52.0818912,222.449691 50.1501418,222.449691 C48.2183923,222.449691 46.6526267,220.897964 46.6526267,218.983534 C46.6526267,217.069103 48.2183923,215.517376 50.1501418,215.517376 Z M47.4975151,205 C49.4282563,205 50.9950301,206.551728 50.9950301,208.466158 C50.9950301,210.379589 49.4282563,211.932316 47.4975151,211.932316 C45.5657656,211.932316 44,210.379589 44,208.466158 C44,206.551728 45.5657656,205 47.4975151,205 Z M105.252387,248.067684 C103.320638,248.067684 101.754872,249.620411 101.754872,251.533842 C101.754872,253.448272 103.320638,255 105.252387,255 C107.184136,255 108.749902,253.448272 108.749902,251.533842 C108.749902,249.620411 107.184136,248.067684 105.252387,248.067684 Z M112.429905,237.851062 C110.498155,237.851062 108.93239,239.40279 108.93239,241.31722 C108.93239,243.23165 110.498155,244.783378 112.429905,244.783378 C114.361654,244.783378 115.926412,243.23165 115.926412,241.31722 C115.926412,239.40279 114.361654,237.851062 112.429905,237.851062 Z M118.485274,226.348494 C116.554533,226.348494 114.987759,227.900222 114.987759,229.814652 C114.987759,231.729082 116.554533,233.28081 118.485274,233.28081 C120.417023,233.28081 121.982789,231.729082 121.982789,229.814652 C121.982789,227.900222 120.417023,226.348494 118.485274,226.348494 Z M122.849858,215.517376 C120.918109,215.517376 119.352343,217.069103 119.352343,218.983534 C119.352343,220.897964 120.918109,222.449691 122.849858,222.449691 C124.781608,222.449691 126.347373,220.897964 126.347373,218.983534 C126.347373,217.069103 124.781608,215.517376 122.849858,215.517376 L122.849858,215.517376 Z" id="Fill-165" fill="#5F5F5F"></path>
                <path d="M152.941882,224 C166.093098,237.59594 172.402838,256.11084 173.895906,275.437074 C174.161274,278.873007 173.847839,317.10146 173.743695,320.780997 C173.441276,331.534214 170.492191,342 152.035627,342 L21.6860755,342 C3.28258427,342 0.334500775,331.514848 0.030079111,320.769785 C-0.0750665297,317.090248 0.129216429,278.768023 0.129216429,275.437074 C0.129216429,256.838594 7.45235996,239.770027 19.6612709,226.409536 C28.1380123,254.68795 54.2571908,275.315781 85.8599649,275.315781 C117.461737,275.315781 145.022913,253.136633 152.941882,224" id="Fill-166" fill="#2A2A2A"></path>
                <path d="M35,253.792889 C47.6831,266.819516 65.4916247,274.923625 85.2145987,274.923625 C106.31096,274.923625 125.214756,265.650328 138,251 C134.206498,275.547809 109.955796,311.215758 86.2512128,317 C64.9131435,312.244068 39.9170905,278.365377 35,253.792889" id="Fill-167" fill="#3F3F3F"></path>
                <path d="M30.1959105,139 C20.5942526,136.692183 11.5750053,122.82127 9.30624199,106.052331 C7.74976489,94.5532585 12.2629398,91.4201488 19.7409297,91 C20.7383333,108.53521 24.4377568,124.869996 30.1959105,139 Z M142.804089,139 C152.405747,136.692183 161.424995,122.82127 163.693758,106.052331 C165.250235,94.5532585 160.73706,91.4201488 153.25907,91 C152.261667,108.53521 148.562243,124.869996 142.804089,139 L142.804089,139 Z" id="Fill-168" fill="#F49A6A"></path>
                <path d="M174,274.465053 C174,268.599472 173.375762,262.81919 171.998031,257.218539 C169.141368,245.603785 163.099389,234.813926 155.084499,226 C150.831067,238.86213 148.130713,253.996232 148.130713,269.108257 C148.130713,271.233715 148.089632,307.392588 148.057568,340 L152.126635,340 C170.594248,340 173.545098,329.695845 173.847698,319.108697 C173.951905,315.485986 174,277.752588 174,274.465053 Z M19.1179396,226.802817 C7.2373859,239.866655 0.129293778,256.434789 0.129293778,274.465053 C0.129293778,277.74456 -0.0751114645,315.474947 0.0300971164,319.097658 C0.334701007,329.676778 3.28454922,340 21.6990568,340 L25.8192252,340 C25.7881636,307.392588 25.7470822,271.233715 25.7470822,269.108257 C25.7470822,253.996232 23.3703702,239.664947 19.1179396,226.802817 L19.1179396,226.802817 Z" id="Fill-169" fill="#4D4D4D"></path>
                <path d="M140.543234,40.9071598 C142.237913,50.4017361 156,63.8470554 156,74.1996059 C156,134.840615 124.883832,184 86.5,184 C57.3628064,184 32.4134163,155.67162 22.0840381,115.498119 C18.8055745,102.749333 17,88.8075056 17,74.1996059 C17,58.0737518 23.3593322,42.760181 27.3112317,28.9665953 C47.5556435,29.4773184 136.681059,19.2679328 140.543234,40.9071598" id="Fill-170" fill="#FBBB91"></path>
                <path d="M16.0257796,89.6415678 C16.0850748,89.5308807 20.3181492,89.3296315 23.1100486,85.8520451 C29.3269997,78.1079753 23.511045,74.3637336 34.4927172,61.1225415 C45.7537804,47.5452632 73.1682633,48.8644518 86.8001296,37.0662166 C94.9587472,46.4987673 108.158462,44.4792314 119.40847,47.8521683 C131.847397,51.5813162 141.600955,63.9168869 144.700385,68.0042584 C151.749479,77.2949284 148.291263,83.0778246 156.101144,91 C160.75632,78.2267123 161.823634,77.6098835 160.433714,63.896762 C156.641836,26.4784954 130.817268,-7.31929779 85.5016652,1.38070578 C47.2562605,-5.78376628 29.0767539,17.4615243 17.8619208,50.2339527 C16.4951162,54.2297559 13.6770867,60.1817014 12.9524792,64.3817726 C10.2630901,79.9644993 13.9062274,69.9845507 16.0257796,89.6415678" id="Fill-171" fill="#2A2A2A"></path>
                <path d="M110,41 C106.907461,22.12 100.0053,6.66731707 85.059179,6 C84.8705252,13.3336585 85.1135034,23.4731707 86.0696126,30.8068293 C86.9862132,37.8331707 103.730965,39.1756098 110,41" id="Fill-172" fill="#3B3B3B"></path>
                <path d="M54.4480212,44.9700532 C56.8854267,45.23338 66.5055295,43.7562812 73.6331558,40.689964 C79.6257058,38.1122414 84.3760968,35.301022 84.4117911,32.9053653 C84.5066357,26.3602541 85.5652244,16.011305 84.5902622,9.62151552 C83.5255545,2.64644106 81.4818053,1.35757978 80.5751721,10.3796087 C79.6104082,19.9941229 75.7166785,29.3946841 64.0426282,36.5333092 C58.1122881,40.1591959 52.3257447,44.2273893 54.4480212,44.9700532" id="Fill-173" fill="#1F1F1F"></path>
                <path d="M27.3110323,215 C30.0933957,210.38586 42.8528414,206.319247 40.7717082,196.26457 C35.7150055,171.833226 10.3020341,134.064086 7.08324082,120 C5.28848404,129.756398 5.69549172,155.171452 8.51708476,174.568817 C10.1539421,185.825806 12.9314018,193.024355 15.7157267,199.254516 C19.2081468,207.066989 23.9098211,213.956022 27.3110323,215" id="Fill-174" fill="#3B3B3B"></path>
                <path d="M29,66.6123274 C22.193536,78.6565214 23.8534798,111.521968 24.6601351,126 C18.8875392,117.576584 15.4217989,78.2307269 17.7147637,67.6966301 C22.4088425,77.1586188 24.3059211,57.1503387 29,66.6123274" id="Fill-175" fill="#2A2A2A"></path>
                <path d="M86.4441611,245 C91.990984,245 96.8072341,248.276125 98.8947367,253.029997 C100.539855,256.777463 100.492,262.700585 97.7717603,265.386016 C96.6179445,266.525934 92.4408126,265.793635 91.7304449,266.789925 C91.1827812,267.556614 91.8952757,271.598416 91.1923521,272.209339 C88.3838476,274.654042 84.1354662,274.625721 81.309947,271.938267 C80.4421925,271.112914 81.6066424,267.888373 81.0206955,266.850613 C80.5931988,266.096062 76.2331578,266.789925 75.2462997,265.661134 C72.6738755,262.718791 72.4760786,257.011111 73.8181204,253.464925 C75.7205871,248.436948 80.7218731,245 86.4441611,245 Z M78.6407511,256.530667 C81.0472811,255.753864 83.5856757,256.773417 84.3119947,258.807467 C85.0372503,260.840506 83.6760668,263.11933 81.2706003,263.896133 C78.8651337,264.672935 76.3256757,263.654393 75.5993567,261.620343 C74.8741011,259.586293 76.236348,257.307469 78.6407511,256.530667 Z M94.3592306,256.530667 C91.9527007,255.753864 89.4143061,256.773417 88.6879871,258.807467 C87.961668,260.840506 89.323915,263.11933 91.7293815,263.896133 C94.134848,264.672935 96.674306,263.654393 97.3995616,261.620343 C98.1258807,259.586293 96.7636337,257.307469 94.3592306,256.530667 L94.3592306,256.530667 Z" id="Fill-176" fill="#333333"></path>
                <path d="M58.7496185,95 C71.1596786,95 79.770351,102.120743 81.2897041,107.532985 C74.3782553,106.015646 63.7518274,101.410859 55.3602151,102.833614 C51.2071156,103.538519 45.2000437,106.013655 49.6897723,110.217203 C50.1007613,110.601516 50.5589789,110.946004 51.0543764,111.255644 C41.5091813,113.145349 33,108.602292 33,99.201557 C36.0427257,100.866249 40.9514822,97.7011432 45.2332041,96.7323955 C49.4144398,95.7855518 52.100439,95 58.7496185,95 Z M113.250381,95 C100.840321,95 92.2306542,102.120743 90.7102963,107.532985 C97.6217451,106.015646 108.249178,101.410859 116.64079,102.833614 C120.793889,103.538519 126.799956,106.013655 122.311233,110.217203 C121.785689,110.709044 121.182771,111.136169 120.523581,111.504552 C130.276783,113.732771 139,108.236895 139,99.201557 C135.958279,100.866249 131.049523,97.7011432 126.767801,96.7323955 C122.586565,95.7855518 119.900566,95 113.250381,95 L113.250381,95 Z" id="Fill-177" fill="#4D4D4D"></path>
            </g>
            <g id="icon" transform="translate(422.000000, 66.000000)" fill="#126970">
                <path d="M50.5555556,99 L50.5555556,54.065534 C50.5555556,37.4854369 63.7466667,24.0291262 80,24.0291262 C96.2533333,24.0291262 109.444444,37.4854369 109.444444,54.065534 L109.444444,99 C123.695556,89.2682039 133,72.8082524 133,54.065534 C133,24.1492718 109.326667,0 80,0 C50.6733333,0 27,24.1492718 27,54.065534 C27,72.8082524 36.3044444,89.2682039 50.5555556,99 Z" id="Path"></path>
                <path d="M168.140667,152.891667 L113.963333,125.897222 C111.934667,125.061111 109.786667,124.583333 107.519333,124.583333 L98.45,124.583333 L98.45,52.9166667 C98.45,43.0027778 90.4546667,35 80.55,35 C70.6453333,35 62.65,43.0027778 62.65,52.9166667 L62.65,181.2 C19.69,172.122222 20.406,172.241667 18.8546667,172.241667 C15.1553333,172.241667 11.814,173.794444 9.42733333,176.183333 L0,185.738889 L58.9506667,244.744444 C62.1726667,247.969444 66.7073333,250 71.6,250 L152.627333,250 C161.577333,250 168.498667,243.430556 169.811333,234.711111 L178.761333,171.763889 C178.880667,170.927778 179,170.091667 179,169.375 C179,161.969444 174.465333,155.519444 168.140667,152.891667 Z" id="Path"></path>
            </g>
        </g>
    </g>
</svg>