<?xml version="1.0" encoding="UTF-8"?>
<svg width="512px" height="512px" viewBox="0 0 512 512" version="1.1" xmlns="http://www.w3.org/2000/svg" xmlns:xlink="http://www.w3.org/1999/xlink">
    <!-- Generator: Sketch 60.1 (88133) - https://sketch.com -->
    <title>icon</title>
    <desc>Created with Sketch.</desc>
    <g id="pushToTalk" stroke="none" stroke-width="1" fill="none" fill-rule="evenodd">
        <g id="icon" fill="#FFFFFF">
            <rect id="invisible" fill-opacity="0.01" x="0" y="0" width="512" height="512"></rect>
            <g id="safari-svgrepo-com" transform="translate(140.000000, 124.000000)" fill-rule="nonzero">
                <path d="M116.499186,15.3081934 C112.319431,15.3081934 108.116884,15.5343344 103.953408,15.981718 C105.353443,13.6876525 105.860548,11.128259 105.332279,8.6398918 C104.237485,3.47212131 98.9889817,0 92.2712559,0 C90.8988961,0 89.4996751,0.1494 88.1077799,0.444118033 C84.2121013,1.27520656 80.7925974,3.15209508 78.4809118,5.73026557 C76.0080594,8.48804262 75.0190812,11.7658623 75.6963074,14.958777 C76.2278323,17.4724525 77.7670568,19.6244656 80.0307179,21.1527541 C57.9288873,28.4741705 38.1281607,42.5838984 23.9047825,61.2376721 C8.2667179,81.7454754 0,106.269118 0,132.154505 C0,196.582643 52.2611878,249 116.499186,249 C180.737184,249 233,196.582643 233,132.154505 C233,67.7247344 180.737184,15.3081934 116.499186,15.3081934 Z M92.2712559,7.90758689 C95.3049362,7.90758689 97.3740576,9.11503279 97.6206917,10.2824754 C97.7582533,10.9339574 97.3870812,11.7772918 96.6422952,12.5904197 C94.7498061,11.6825902 92.5748681,11.4139967 90.4886533,11.8589311 C88.4260437,12.2989672 86.5636716,13.4174262 85.1921258,15.0077607 C84.2064035,14.5677246 83.5438288,13.9546131 83.4078952,13.3137443 C83.2532402,12.5830721 83.7302288,11.6025836 84.6833921,10.6923049 C85.9092367,9.52078033 87.7553293,8.60560328 89.7463092,8.18107869 C90.5977258,7.99983934 91.4475144,7.90758689 92.2712559,7.90758689 Z M141.753537,213.348098 L132.46284,198.235023 C132.012713,197.501902 131.1499,197.129626 130.309066,197.310049 C129.466603,197.489656 128.829261,198.179508 128.714491,199.034272 L126.361293,216.601426 C123.088304,216.980233 119.777872,217.172902 116.499186,217.172902 C94.4811948,217.172902 73.7460262,208.810584 57.8963284,193.582397 C58.064821,193.515452 58.2268017,193.424833 58.3773869,193.309721 L104.347371,158.267666 C107.422564,159.705334 110.752531,160.597652 114.104475,160.88339 L125.76872,185.436423 C126.174079,186.289554 127.111776,186.751633 128.029125,186.554882 C128.949729,186.358948 129.61556,185.5548 129.639979,184.611049 L130.34081,157.432495 C132.908084,156.0234 135.223025,154.238764 137.248192,152.107977 L151.019001,157.003889 C151.90786,157.319016 152.893583,156.983479 153.405572,156.191577 C153.91919,155.399675 153.823955,154.358774 153.175217,153.674636 L143.115315,143.050092 C144.232901,140.323338 144.918267,137.474941 145.155134,134.553069 L169.624,122.855784 C170.474603,122.450036 170.935312,121.512816 170.739958,120.588659 C170.544604,119.665318 169.74284,118.997508 168.801886,118.973016 L143.78196,118.3248 L177.477219,73.8566656 C177.590362,73.7064492 177.680713,73.5448033 177.747459,73.3774426 C186.823266,82.8908754 193.602854,94.3930426 197.456206,106.825082 L182.387923,116.143397 C181.656975,116.595679 181.285803,117.461056 181.465691,118.305207 C181.643951,119.148541 182.331759,119.788593 183.18399,119.902889 L200.69745,122.263082 C201.077576,125.558046 201.268045,128.878318 201.268045,132.154505 C201.268045,154.861672 192.451081,176.211993 176.438589,192.271269 C166.706718,202.032069 154.742117,209.297154 141.753537,213.348098 Z M51.5351231,146.003803 C51.3560489,145.159652 50.668241,144.520416 49.8160105,144.405305 L32.3025502,142.042662 C31.9232384,138.747698 31.7319546,135.428243 31.7319546,132.153689 C31.7319546,109.442439 40.5497328,88.092118 56.5614114,72.0352918 C66.2932821,62.2753082 78.257883,55.0085902 91.2448349,50.9551967 L100.536346,66.0707213 C100.987287,66.804659 101.852541,67.1769344 102.690934,66.9956951 C103.532583,66.8160885 104.169925,66.1254197 104.284695,65.2714721 L106.638707,47.7051344 C109.909254,47.3255115 113.218872,47.133659 116.499186,47.133659 C138.517991,47.133659 159.253974,55.495977 175.102858,70.7241639 C174.935993,70.7911082 174.77564,70.8817279 174.624241,70.996023 L128.653443,106.038079 C125.580692,104.601226 122.251539,103.708092 118.897153,103.422354 L107.230466,78.8685049 C106.825107,78.0161902 105.886596,77.5532951 104.970875,77.7500459 C104.050271,77.9459803 103.383626,78.7501279 103.359207,79.6938787 L102.65919,106.874066 C100.09273,108.282344 97.7769747,110.066164 95.7509939,112.196951 L81.9793712,107.301039 C81.0913258,106.985911 80.1047895,107.322266 79.5928,108.113351 C79.0799965,108.905252 79.1752314,109.946154 79.8239686,110.630292 L89.8838707,121.255652 C88.7679127,123.983223 88.0841747,126.83162 87.8456803,129.753492 L63.375186,141.449144 C62.5253974,141.855708 62.0646882,142.792928 62.2600419,143.716269 C62.4553956,144.63961 63.2571598,145.30742 64.1981135,145.331911 L89.2204821,145.980128 L55.5252227,190.448262 C55.4104524,190.599295 55.3201013,190.761757 55.2533555,190.929934 C46.1783616,181.4214 39.3995878,169.918416 35.5437939,157.479846 L50.6112629,148.163164 C51.3438393,147.712515 51.7133834,146.847138 51.5351231,146.003803 Z M127.388528,149.995967 C125.368245,151.237702 123.16319,152.119407 120.835224,152.615774 C118.580517,153.097446 116.270459,153.204393 113.940866,152.921921 C113.849701,152.903144 113.756908,152.890082 113.664929,152.884367 C113.057705,152.801095 112.452108,152.690066 111.850582,152.550462 L125.825698,141.894895 C125.973841,141.783049 126.104077,141.652426 126.215591,141.504659 L136.833879,127.490449 C136.857485,127.594131 136.881904,127.69863 136.903881,127.803128 C138.734508,136.46098 134.912901,145.379262 127.388528,149.995967 Z M112.16152,111.690787 C113.607137,111.383007 115.074732,111.227892 116.522791,111.227892 C117.373394,111.227892 118.238648,111.28259 119.095762,111.390354 C119.172276,111.405049 119.249603,111.414846 119.326117,111.420561 C119.938225,111.504649 120.547078,111.616495 121.151046,111.756098 L107.173488,122.410033 C107.026973,122.521879 106.895923,122.652502 106.784409,122.800269 L96.1644926,136.816111 C96.1408873,136.711613 96.1172821,136.607115 96.0953048,136.502616 C93.7071057,125.219243 100.914844,114.089351 112.16152,111.690787 Z" id="XMLID_26_"></path>
            </g>
        </g>
    </g>
</svg>